<svg width="1438" height="1357" viewBox="0 0 1438 1357" fill="none" xmlns="http://www.w3.org/2000/svg">
<line x1="27.3501" y1="1.52989e-08" x2="27.35" y2="1356" stroke="white" stroke-opacity="0.05" stroke-width="0.7"/>
<line x1="60.3501" y1="1.50305e-08" x2="60.35" y2="1356" stroke="white" stroke-opacity="0.05" stroke-width="0.7"/>
<line x1="94.3501" y1="1.47079e-08" x2="94.35" y2="1356" stroke="white" stroke-opacity="0.05" stroke-width="0.7"/>
<line x1="128.35" y1="1.4633e-08" x2="128.35" y2="1356" stroke="white" stroke-opacity="0.05" stroke-width="0.7"/>
<line x1="162.35" y1="1.45705e-08" x2="162.35" y2="1356" stroke="white" stroke-opacity="0.05" stroke-width="0.7"/>
<line x1="195.35" y1="1.45917e-08" x2="195.35" y2="1356" stroke="white" stroke-opacity="0.05" stroke-width="0.7"/>
<line x1="229.35" y1="1.45917e-08" x2="229.35" y2="1356" stroke="white" stroke-opacity="0.05" stroke-width="0.7"/>
<line x1="263.35" y1="1.45493e-08" x2="263.35" y2="1356" stroke="white" stroke-opacity="0.05" stroke-width="0.7"/>
<line x1="296.35" y1="1.51989e-08" x2="296.35" y2="1356" stroke="white" stroke-opacity="0.05" stroke-width="0.7"/>
<line x1="329.35" y1="1.49539e-08" x2="329.35" y2="1356" stroke="white" stroke-opacity="0.05" stroke-width="0.7"/>
<line x1="363.35" y1="1.4633e-08" x2="363.35" y2="1356" stroke="white" stroke-opacity="0.05" stroke-width="0.7"/>
<line x1="396.35" y1="1.4633e-08" x2="396.35" y2="1356" stroke="white" stroke-opacity="0.05" stroke-width="0.7"/>
<line x1="431.35" y1="1.45493e-08" x2="431.35" y2="1356" stroke="white" stroke-opacity="0.05" stroke-width="0.7"/>
<line x1="464.35" y1="1.45493e-08" x2="464.35" y2="1356" stroke="white" stroke-opacity="0.05" stroke-width="0.7"/>
<line x1="498.35" y1="1.45493e-08" x2="498.35" y2="1356" stroke="white" stroke-opacity="0.05" stroke-width="0.7"/>
<line x1="531.35" y1="1.45705e-08" x2="531.35" y2="1356" stroke="white" stroke-opacity="0.05" stroke-width="0.7"/>
<line x1="565.35" y1="1.51989e-08" x2="565.35" y2="1356" stroke="white" stroke-opacity="0.05" stroke-width="0.7"/>
<line x1="598.35" y1="1.49322e-08" x2="598.35" y2="1356" stroke="white" stroke-opacity="0.05" stroke-width="0.7"/>
<line x1="632.35" y1="1.46118e-08" x2="632.35" y2="1356" stroke="white" stroke-opacity="0.05" stroke-width="0.7"/>
<line x1="665.35" y1="1.46118e-08" x2="665.35" y2="1356" stroke="white" stroke-opacity="0.05" stroke-width="0.7"/>
<line x1="699.35" y1="1.45493e-08" x2="699.35" y2="1356" stroke="white" stroke-opacity="0.05" stroke-width="0.7"/>
<line x1="733.35" y1="1.45493e-08" x2="733.35" y2="1356" stroke="white" stroke-opacity="0.05" stroke-width="0.7"/>
<line x1="767.35" y1="1.45493e-08" x2="767.35" y2="1356" stroke="white" stroke-opacity="0.05" stroke-width="0.7"/>
<line x1="800.35" y1="1.45493e-08" x2="800.35" y2="1356" stroke="white" stroke-opacity="0.05" stroke-width="0.7"/>
<line x1="833.35" y1="1.51989e-08" x2="833.35" y2="1356" stroke="white" stroke-opacity="0.05" stroke-width="0.7"/>
<line x1="866.35" y1="1.49322e-08" x2="866.35" y2="1356" stroke="white" stroke-opacity="0.05" stroke-width="0.7"/>
<line x1="901.35" y1="1.46118e-08" x2="901.35" y2="1356" stroke="white" stroke-opacity="0.05" stroke-width="0.7"/>
<line x1="934.35" y1="1.46118e-08" x2="934.35" y2="1356" stroke="white" stroke-opacity="0.05" stroke-width="0.7"/>
<line x1="968.35" y1="1.45493e-08" x2="968.35" y2="1356" stroke="white" stroke-opacity="0.05" stroke-width="0.7"/>
<line x1="1001.35" y1="1.45493e-08" x2="1001.35" y2="1356" stroke="white" stroke-opacity="0.05" stroke-width="0.7"/>
<line x1="1036.35" y1="1.45493e-08" x2="1036.35" y2="1356" stroke="white" stroke-opacity="0.05" stroke-width="0.7"/>
<line x1="1069.35" y1="1.45493e-08" x2="1069.35" y2="1356" stroke="white" stroke-opacity="0.05" stroke-width="0.7"/>
<line x1="1102.35" y1="1.45493e-08" x2="1102.35" y2="1356" stroke="white" stroke-opacity="0.05" stroke-width="0.7"/>
<line x1="1135.35" y1="1.45493e-08" x2="1135.35" y2="1356" stroke="white" stroke-opacity="0.05" stroke-width="0.7"/>
<line x1="1168.35" y1="1.51989e-08" x2="1168.35" y2="1356" stroke="white" stroke-opacity="0.05" stroke-width="0.7"/>
<line x1="1202.35" y1="1.49322e-08" x2="1202.35" y2="1356" stroke="white" stroke-opacity="0.05" stroke-width="0.7"/>
<line x1="1236.35" y1="1.46118e-08" x2="1236.35" y2="1356" stroke="white" stroke-opacity="0.05" stroke-width="0.7"/>
<line x1="1269.35" y1="1.46118e-08" x2="1269.35" y2="1356" stroke="white" stroke-opacity="0.05" stroke-width="0.7"/>
<line x1="1303.35" y1="1.45493e-08" x2="1303.35" y2="1356" stroke="white" stroke-opacity="0.05" stroke-width="0.7"/>
<line x1="1337.35" y1="1.45493e-08" x2="1337.35" y2="1356" stroke="white" stroke-opacity="0.05" stroke-width="0.7"/>
<line x1="1371.35" y1="1.45493e-08" x2="1371.35" y2="1356" stroke="white" stroke-opacity="0.05" stroke-width="0.7"/>
<line x1="1404.35" y1="1.45493e-08" x2="1404.35" y2="1356" stroke="white" stroke-opacity="0.05" stroke-width="0.7"/>
<line x1="1440" y1="23.35" x2="-0.000122101" y2="23.3499" stroke="white" stroke-opacity="0.05" stroke-width="0.7"/>
<line x1="1440" y1="55.2953" x2="-0.000122101" y2="55.2952" stroke="white" stroke-opacity="0.05" stroke-width="0.7"/>
<line x1="1440" y1="88.2089" x2="-0.000122101" y2="88.2088" stroke="white" stroke-opacity="0.05" stroke-width="0.7"/>
<line x1="1440" y1="121.123" x2="-0.000122101" y2="121.123" stroke="white" stroke-opacity="0.05" stroke-width="0.7"/>
<line x1="1440" y1="154.037" x2="-0.000122101" y2="154.036" stroke="white" stroke-opacity="0.05" stroke-width="0.7"/>
<line x1="1440" y1="185.982" x2="-0.000122101" y2="185.982" stroke="white" stroke-opacity="0.05" stroke-width="0.7"/>
<line x1="1440" y1="218.895" x2="-0.000122101" y2="218.895" stroke="white" stroke-opacity="0.05" stroke-width="0.7"/>
<line x1="1440" y1="251.809" x2="-0.000122101" y2="251.809" stroke="white" stroke-opacity="0.05" stroke-width="0.7"/>
<line x1="1440" y1="283.755" x2="-0.000122101" y2="283.754" stroke="white" stroke-opacity="0.05" stroke-width="0.7"/>
<line x1="1440" y1="315.7" x2="-0.000122101" y2="315.7" stroke="white" stroke-opacity="0.05" stroke-width="0.7"/>
<line x1="1440" y1="348.614" x2="-0.000122101" y2="348.614" stroke="white" stroke-opacity="0.05" stroke-width="0.7"/>
<line x1="1440" y1="380.559" x2="-0.000122101" y2="380.559" stroke="white" stroke-opacity="0.05" stroke-width="0.7"/>
<line x1="1440" y1="414.441" x2="-0.000122101" y2="414.441" stroke="white" stroke-opacity="0.05" stroke-width="0.7"/>
<line x1="1440" y1="446.386" x2="-0.000122101" y2="446.386" stroke="white" stroke-opacity="0.05" stroke-width="0.7"/>
<line x1="1440" y1="479.3" x2="-0.000122101" y2="479.3" stroke="white" stroke-opacity="0.05" stroke-width="0.7"/>
<line x1="1440" y1="511.246" x2="-0.000122101" y2="511.245" stroke="white" stroke-opacity="0.05" stroke-width="0.7"/>
<line x1="1440" y1="544.159" x2="-0.000122101" y2="544.159" stroke="white" stroke-opacity="0.05" stroke-width="0.7"/>
<line x1="1440" y1="576.105" x2="-0.000122101" y2="576.104" stroke="white" stroke-opacity="0.05" stroke-width="0.7"/>
<line x1="1440" y1="609.018" x2="-0.000122101" y2="609.018" stroke="white" stroke-opacity="0.05" stroke-width="0.7"/>
<line x1="1440" y1="640.964" x2="-0.000122101" y2="640.964" stroke="white" stroke-opacity="0.05" stroke-width="0.7"/>
<line x1="1440" y1="673.877" x2="-0.000122101" y2="673.877" stroke="white" stroke-opacity="0.05" stroke-width="0.7"/>
<line x1="1440" y1="706.791" x2="-0.000122101" y2="706.791" stroke="white" stroke-opacity="0.05" stroke-width="0.7"/>
<line x1="1440" y1="739.704" x2="-0.000122101" y2="739.704" stroke="white" stroke-opacity="0.05" stroke-width="0.7"/>
<line x1="1440" y1="771.65" x2="-0.000122101" y2="771.65" stroke="white" stroke-opacity="0.05" stroke-width="0.7"/>
<line x1="1440" y1="803.596" x2="-0.000122101" y2="803.595" stroke="white" stroke-opacity="0.05" stroke-width="0.7"/>
<line x1="1440" y1="835.541" x2="-0.000122101" y2="835.541" stroke="white" stroke-opacity="0.05" stroke-width="0.7"/>
<line x1="1440" y1="869.423" x2="-0.000122101" y2="869.422" stroke="white" stroke-opacity="0.05" stroke-width="0.7"/>
<line x1="1440" y1="901.368" x2="-0.000122101" y2="901.368" stroke="white" stroke-opacity="0.05" stroke-width="0.7"/>
<line x1="1440" y1="934.282" x2="-0.000122101" y2="934.281" stroke="white" stroke-opacity="0.05" stroke-width="0.7"/>
<line x1="1440" y1="966.227" x2="-0.000122101" y2="966.227" stroke="white" stroke-opacity="0.05" stroke-width="0.7"/>
<line x1="1440" y1="1000.11" x2="-0.000122101" y2="1000.11" stroke="white" stroke-opacity="0.05" stroke-width="0.7"/>
<line x1="1440" y1="1032.05" x2="-0.000122101" y2="1032.05" stroke="white" stroke-opacity="0.05" stroke-width="0.7"/>
<line x1="1440" y1="1064" x2="-0.000122101" y2="1064" stroke="white" stroke-opacity="0.05" stroke-width="0.7"/>
<line x1="1440" y1="1095.95" x2="-0.000122101" y2="1095.95" stroke="white" stroke-opacity="0.05" stroke-width="0.7"/>
<line x1="1440" y1="1127.89" x2="-0.000122101" y2="1127.89" stroke="white" stroke-opacity="0.05" stroke-width="0.7"/>
<line x1="1440" y1="1160.8" x2="-0.000122101" y2="1160.8" stroke="white" stroke-opacity="0.05" stroke-width="0.7"/>
<line x1="1440" y1="1193.72" x2="-0.000122101" y2="1193.72" stroke="white" stroke-opacity="0.05" stroke-width="0.7"/>
<line x1="1440" y1="1225.66" x2="-0.000122101" y2="1225.66" stroke="white" stroke-opacity="0.05" stroke-width="0.7"/>
<line x1="1440" y1="1258.58" x2="-0.000122101" y2="1258.58" stroke="white" stroke-opacity="0.05" stroke-width="0.7"/>
<line x1="1440" y1="1291.49" x2="-0.000122101" y2="1291.49" stroke="white" stroke-opacity="0.05" stroke-width="0.7"/>
<line x1="1440" y1="1324.4" x2="-0.000122101" y2="1324.4" stroke="white" stroke-opacity="0.05" stroke-width="0.7"/>
<line x1="1440" y1="1356.35" x2="-0.000122101" y2="1356.35" stroke="white" stroke-opacity="0.05" stroke-width="0.7"/>
<rect x="128" y="150" width="34" height="32" fill="white" fill-opacity="0.04"/>
<rect x="316" y="544" width="34" height="32" fill="white" fill-opacity="0.04"/>
<rect x="195" y="310" width="34" height="32" fill="white" fill-opacity="0.04"/>
<rect x="379" y="231" width="34" height="32" fill="white" fill-opacity="0.04"/>
<rect x="848" y="166" width="36" height="32" fill="white" fill-opacity="0.04"/>
<rect x="1335" y="251" width="36" height="32" fill="white" fill-opacity="0.04"/>
<rect x="1321" y="617" width="35" height="33" fill="white" fill-opacity="0.04"/>
<rect x="60" y="474" width="34" height="33" fill="white" fill-opacity="0.04"/>
<rect x="1135" y="465" width="34" height="34" fill="white" fill-opacity="0.04"/>
<rect x="1002" y="674" width="34" height="32" fill="white" fill-opacity="0.04"/>
</svg>
